HIERARCHY
ROOT Hips
{
	OFFSET 0.000000 83.214638 0.000000
	CHANNELS 6 Xposition Yposition Zposition Xrotation Yrotation Zrotation
	JOINT Pelvis
	{
		OFFSET 0.000000 0.000000 0.000000
		CHANNELS 3 Xrotation Yrotation Zrotation
		JOINT LeftUpLeg
		{
			OFFSET 8.479700 -4.795502 -0.379100
			CHANNELS 3 Xrotation Yrotation Zrotation
			JOINT LeftLeg
			{
				OFFSET 0.024144 -32.555107 0.112900
				CHANNELS 3 Xrotation Yrotation Zrotation
				JOINT LeftFoot
				{
					OFFSET -0.024144 -32.638630 -3.012600
					CHANNELS 3 Xrotation Yrotation Zrotation
					JOINT LeftToeBase
					{
						OFFSET 0.970200 -13.225400 11.864200
						CHANNELS 3 Xrotation Yrotation Zrotation
						End Site
						{
							OFFSET 0.000000 12.319262 0.000000
						}
					}
					JOINT LFootTongue
					{
						OFFSET 1.142400 -1.059800 6.665200
						CHANNELS 3 Xrotation Yrotation Zrotation
						End Site
						{
							OFFSET 0.000000 12.319262 0.000000
						}
					}
				}
				JOINT LeftPantLeg
				{
					OFFSET 0.918482 -16.533964 -2.284700
					CHANNELS 3 Xrotation Yrotation Zrotation
					End Site
					{
						OFFSET 0.350399 24.744368 0.000000
					}
				}
			}
		}
		JOINT RightUpLeg
		{
			OFFSET -8.479700 -4.795502 -0.379100
			CHANNELS 3 Xrotation Yrotation Zrotation
			JOINT RightLeg
			{
				OFFSET -0.023144 -32.555092 0.112900
				CHANNELS 3 Xrotation Yrotation Zrotation
				JOINT RightFoot
				{
					OFFSET 0.023144 -32.638641 -3.012700
					CHANNELS 3 Xrotation Yrotation Zrotation
					JOINT RightToeBase
					{
						OFFSET -0.970200 -13.225400 11.864200
						CHANNELS 3 Xrotation Yrotation Zrotation
						End Site
						{
							OFFSET 0.000000 12.319244 0.000000
						}
					}
					JOINT RFootTongue
					{
						OFFSET -1.142200 -1.059800 6.665200
						CHANNELS 3 Xrotation Yrotation Zrotation
						End Site
						{
							OFFSET 0.000000 12.319243 0.000000
						}
					}
				}
				JOINT RightPantLeg
				{
					OFFSET -0.919482 -16.533978 -2.284800
					CHANNELS 3 Xrotation Yrotation Zrotation
					End Site
					{
						OFFSET -0.350400 24.744419 0.000000
					}
				}
			}
		}
	}
	JOINT Spine
	{
		OFFSET 0.000000 7.722000 1.166200
		CHANNELS 3 Xrotation Yrotation Zrotation
		JOINT Spine1
		{
			OFFSET 0.000000 12.024101 0.248800
			CHANNELS 3 Xrotation Yrotation Zrotation
			JOINT Spine2
			{
				OFFSET 0.000000 11.502998 -0.491200
				CHANNELS 3 Xrotation Yrotation Zrotation
				JOINT Neck
				{
					OFFSET 0.000000 18.430702 -3.123100
					CHANNELS 3 Xrotation Yrotation Zrotation
					JOINT Head
					{
						OFFSET 0.000000 9.051102 1.034000
						CHANNELS 3 Xrotation Yrotation Zrotation
						JOINT HairB
						{
							OFFSET 0.208400 24.786102 24.822300
							CHANNELS 3 Xrotation Yrotation Zrotation
							End Site
							{
								OFFSET 0.000000 32.263779 0.000000
							}
						}
						JOINT HairA
						{
							OFFSET -7.081100 24.428299 23.196600
							CHANNELS 3 Xrotation Yrotation Zrotation
							End Site
							{
								OFFSET 0.000000 32.263779 0.000000
							}
						}
						JOINT Hat
						{
							OFFSET 16.728800 15.048294 -15.439601
							CHANNELS 3 Xrotation Yrotation Zrotation
							End Site
							{
								OFFSET 0.000000 32.263779 0.000000
							}
						}
					}
				}
				JOINT LeftShoulder
				{
					OFFSET 6.197800 13.665199 -4.064700
					CHANNELS 3 Xrotation Yrotation Zrotation
					JOINT LeftArm
					{
						OFFSET 7.778100 -0.187103 -1.709300
						CHANNELS 3 Xrotation Yrotation Zrotation
						JOINT LeftForeArm
						{
							OFFSET 22.049376 0.000000 0.000000
							CHANNELS 3 Xrotation Yrotation Zrotation
							JOINT LeftHand
							{
								OFFSET 23.009392 0.000000 0.000000
								CHANNELS 3 Xrotation Yrotation Zrotation
								JOINT LeftHandThumb1
								{
									OFFSET 3.507191 -2.063065 3.133727
									CHANNELS 3 Xrotation Yrotation Zrotation
									JOINT LeftHandThumb2
									{
										OFFSET 3.101337 -1.790558 1.790558
										CHANNELS 3 Xrotation Yrotation Zrotation
										JOINT LeftHandThumb3
										{
											OFFSET 3.058640 -1.765907 1.765906
											CHANNELS 3 Xrotation Yrotation Zrotation
											End Site
											{
												OFFSET -0.415260 3.926476 -0.049563
											}
										}
									}
								}
								JOINT LeftHandIndex1
								{
									OFFSET 11.334419 -0.901459 3.706815
									CHANNELS 3 Xrotation Yrotation Zrotation
									JOINT LeftHandIndex2
									{
										OFFSET 3.283112 0.000000 0.000000
										CHANNELS 3 Xrotation Yrotation Zrotation
										JOINT LeftHandIndex3
										{
											OFFSET 3.323853 0.000000 0.000000
											CHANNELS 3 Xrotation Yrotation Zrotation
											End Site
											{
												OFFSET -1.135597 3.097809 0.402452
											}
										}
									}
								}
								JOINT LeftHandMiddle1
								{
									OFFSET 11.335861 0.000000 0.000000
									CHANNELS 3 Xrotation Yrotation Zrotation
									JOINT LeftHandMiddle2
									{
										OFFSET 3.410492 0.000000 0.000000
										CHANNELS 3 Xrotation Yrotation Zrotation
										JOINT LeftHandMiddle3
										{
											OFFSET 3.312172 0.000000 0.000000
											CHANNELS 3 Xrotation Yrotation Zrotation
											End Site
											{
												OFFSET -1.150200 3.080154 0.400270
											}
										}
									}
								}
								JOINT LeftHandRing1
								{
									OFFSET 11.514786 -0.013176 -3.003090
									CHANNELS 3 Xrotation Yrotation Zrotation
									JOINT LeftHandRing2
									{
										OFFSET 3.053307 0.000000 0.000000
										CHANNELS 3 Xrotation Yrotation Zrotation
										JOINT LeftHandRing3
										{
											OFFSET 3.295807 0.000000 0.000000
											CHANNELS 3 Xrotation Yrotation Zrotation
											End Site
											{
												OFFSET -1.281006 3.013344 0.375733
											}
										}
									}
								}
								JOINT LeftHandPinky1
								{
									OFFSET 10.518692 -0.960396 -5.730441
									CHANNELS 3 Xrotation Yrotation Zrotation
									JOINT LeftHandPinky2
									{
										OFFSET 2.861649 0.000000 0.000000
										CHANNELS 3 Xrotation Yrotation Zrotation
										JOINT LeftHandPinky3
										{
											OFFSET 2.863380 0.000000 0.000000
											CHANNELS 3 Xrotation Yrotation Zrotation
											End Site
											{
												OFFSET -0.843597 2.711159 0.369971
											}
										}
									}
								}
							}
							JOINT LSleeve
							{
								OFFSET 6.676277 -0.344902 -1.011730
								CHANNELS 3 Xrotation Yrotation Zrotation
								End Site
								{
									OFFSET 0.000000 14.885353 0.000000
								}
							}
						}
					}
				}
				JOINT RightShoulder
				{
					OFFSET -6.197800 13.665199 -4.064700
					CHANNELS 3 Xrotation Yrotation Zrotation
					JOINT RightArm
					{
						OFFSET -7.778100 -0.187103 -1.709300
						CHANNELS 3 Xrotation Yrotation Zrotation
						JOINT RightForeArm
						{
							OFFSET -22.049376 0.000000 0.000000
							CHANNELS 3 Xrotation Yrotation Zrotation
							JOINT RightHand
							{
								OFFSET -23.009392 0.000000 0.000000
								CHANNELS 3 Xrotation Yrotation Zrotation
								JOINT RightHandThumb1
								{
									OFFSET -3.507191 -2.063065 3.133727
									CHANNELS 3 Xrotation Yrotation Zrotation
									JOINT RightHandThumb2
									{
										OFFSET -3.101337 -1.790558 1.790558
										CHANNELS 3 Xrotation Yrotation Zrotation
										JOINT RightHandThumb3
										{
											OFFSET -3.058640 -1.765907 1.765906
											CHANNELS 3 Xrotation Yrotation Zrotation
											End Site
											{
												OFFSET 0.415260 3.926476 -0.049563
											}
										}
									}
								}
								JOINT RightHandIndex1
								{
									OFFSET -11.334419 -0.901459 3.706815
									CHANNELS 3 Xrotation Yrotation Zrotation
									JOINT RightHandIndex2
									{
										OFFSET -3.283112 0.000000 0.000000
										CHANNELS 3 Xrotation Yrotation Zrotation
										JOINT RightHandIndex3
										{
											OFFSET -3.323853 0.000000 0.000000
											CHANNELS 3 Xrotation Yrotation Zrotation
											End Site
											{
												OFFSET 1.135597 3.097809 0.402452
											}
										}
									}
								}
								JOINT RightHandMiddle1
								{
									OFFSET -11.335861 0.000000 0.000000
									CHANNELS 3 Xrotation Yrotation Zrotation
									JOINT RightHandMiddle2
									{
										OFFSET -3.410492 0.000000 0.000000
										CHANNELS 3 Xrotation Yrotation Zrotation
										JOINT RightHandMiddle3
										{
											OFFSET -3.312172 0.000000 0.000000
											CHANNELS 3 Xrotation Yrotation Zrotation
											End Site
											{
												OFFSET 1.150200 3.080154 0.400270
											}
										}
									}
								}
								JOINT RightHandRing1
								{
									OFFSET -11.514786 -0.013176 -3.003090
									CHANNELS 3 Xrotation Yrotation Zrotation
									JOINT RightHandRing2
									{
										OFFSET -3.053307 0.000000 0.000000
										CHANNELS 3 Xrotation Yrotation Zrotation
										JOINT RightHandRing3
										{
											OFFSET -3.295807 0.000000 0.000000
											CHANNELS 3 Xrotation Yrotation Zrotation
											End Site
											{
												OFFSET 1.281006 3.013344 0.375733
											}
										}
									}
								}
								JOINT RightHandPinky1
								{
									OFFSET -10.518692 -0.960396 -5.730441
									CHANNELS 3 Xrotation Yrotation Zrotation
									JOINT RightHandPinky2
									{
										OFFSET -2.861649 0.000000 0.000000
										CHANNELS 3 Xrotation Yrotation Zrotation
										JOINT RightHandPinky3
										{
											OFFSET -2.863380 0.000000 0.000000
											CHANNELS 3 Xrotation Yrotation Zrotation
											End Site
											{
												OFFSET 0.843597 2.711159 0.369971
											}
										}
									}
								}
							}
							JOINT RSleeve
							{
								OFFSET -6.676277 -0.344902 -1.011730
								CHANNELS 3 Xrotation Yrotation Zrotation
								End Site
								{
									OFFSET 0.000000 14.885353 0.000000
								}
							}
						}
					}
				}
				JOINT Backpack
				{
					OFFSET 0.000000 -2.471497 36.677502
					CHANNELS 3 Xrotation Yrotation Zrotation
					End Site
					{
						OFFSET 0.000000 20.427315 0.000000
					}
				}
				JOINT Hood
				{
					OFFSET 0.000000 18.754097 -10.431000
					CHANNELS 3 Xrotation Yrotation Zrotation
					JOINT Hood1
					{
						OFFSET 0.000000 -5.011002 -7.685901
						CHANNELS 3 Xrotation Yrotation Zrotation
						End Site
						{
							OFFSET 0.000000 9.175140 0.000000
						}
					}
				}
				JOINT LHoodieString
				{
					OFFSET 5.250500 16.397697 3.089900
					CHANNELS 3 Xrotation Yrotation Zrotation
					JOINT LHoodieString1
					{
						OFFSET 0.257700 -6.364304 3.694600
						CHANNELS 3 Xrotation Yrotation Zrotation
						JOINT LHoodieString2
						{
							OFFSET 0.000000 -9.643799 2.679100
							CHANNELS 3 Xrotation Yrotation Zrotation
							End Site
							{
								OFFSET 0.000000 10.009018 0.000000
							}
						}
					}
				}
				JOINT RHoodieString
				{
					OFFSET -5.250500 16.397697 3.089900
					CHANNELS 3 Xrotation Yrotation Zrotation
					JOINT RHoodieString1
					{
						OFFSET -0.257700 -6.364304 3.694600
						CHANNELS 3 Xrotation Yrotation Zrotation
						JOINT RHoodieString2
						{
							OFFSET 0.000000 -9.643799 2.679100
							CHANNELS 3 Xrotation Yrotation Zrotation
							End Site
							{
								OFFSET 0.000000 10.009018 0.000000
							}
						}
					}
				}
			}
			JOINT LBackpack_Strap
			{
				OFFSET 15.223200 -7.719803 -6.610900
				CHANNELS 3 Xrotation Yrotation Zrotation
				End Site
				{
					OFFSET 0.000000 16.040596 0.000000
				}
			}
			JOINT RBackpack_Strap
			{
				OFFSET -15.223000 -7.719803 -6.610900
				CHANNELS 3 Xrotation Yrotation Zrotation
				End Site
				{
					OFFSET 0.000000 16.040596 0.000000
				}
			}
		}
	}
	JOINT BoyFacialAnim_Joint
	{
		OFFSET 1.000000 -82.208099 -1.550900
		CHANNELS 3 Xrotation Yrotation Zrotation
		End Site
		{
			OFFSET 0.000000 30.012791 0.000000
		}
	}
}
MOTION
Frames: 4
Frame Time: 0.016667
-0.263241 81.114792 0.070301 -7.175171 -4.213539 2.944437 -0.000000 0.000000 -0.000000 -9.146720 11.655930 5.402492 11.034341 7.595405 1.494343 6.375438 0.061113 -5.989195 -0.000000 -0.000000 0.000000 -0.000000 -0.000000 0.000000 0.000000 -0.000000 0.000001 1.944623 -15.610672 -6.130206 21.281935 -9.182872 -3.342556 -16.163100 -5.480363 7.309203 0.000000 0.000002 0.000000 0.000000 0.000002 0.000000 0.000001 0.000002 -0.000000 5.271390 2.074429 -2.040360 1.478230 0.730365 -0.788770 1.440798 0.721971 -0.741220 2.260305 5.360285 1.627123 3.299470 -10.639881 2.336762 -0.000000 0.000000 0.000000 -0.000000 0.000000 0.000000 -0.000000 0.000000 0.000000 -0.595443 -16.331998 -20.041817 11.139992 0.583278 -33.762407 0.008195 -89.545556 0.008114 -131.220829 -7.501368 10.656087 -12.800120 -17.470132 4.121657 1.000144 0.731293 -1.438331 -0.000001 -0.000000 0.000002 -3.532540 4.254390 -63.954579 3.402099 5.315514 -65.218922 0.000000 0.000000 -0.000004 2.434378 7.296050 -69.364061 3.297866 5.266371 -64.088649 -0.000001 -0.000001 -0.000000 4.717048 8.075513 -77.582288 2.056303 4.456880 -49.517652 -0.000001 0.000001 -0.000002 6.410331 8.363713 -80.414563 1.722722 4.149907 -45.074399 0.000002 -0.000000 -0.000000 -0.000002 -0.000000 0.000001 0.754164 18.436593 11.539477 10.691746 23.557092 38.362198 -0.000328 97.963860 0.000320 -34.546889 -20.180677 22.179149 20.470545 7.475571 18.843594 4.151720 -12.160910 -33.847993 0.000005 -0.000000 0.000000 -0.887097 1.427983 12.684531 1.917418 -3.767475 53.934322 0.000000 0.000001 -0.000001 0.770900 -5.199597 54.618834 5.563867 -4.568241 101.238587 0.000000 0.000001 0.000004 6.934472 -8.544282 63.908775 2.909293 -4.317417 67.934714 -0.000002 0.000001 -0.000003 8.373394 -8.171739 73.989943 2.173679 -3.940997 57.745377 0.000001 -0.000000 -0.000001 0.000002 0.000001 0.000001 -0.000000 -0.000000 0.000000 -0.000000 -0.000000 0.000000 -0.000000 -0.000000 0.000000 -0.000000 -0.000000 0.000000 -0.000000 -0.000000 0.000000 -0.000000 -0.000000 0.000000 -0.000000 -0.000000 0.000000 -0.000000 -0.000000 0.000000 -0.000000 -0.000000 0.000000 0.000000 0.000000 -0.000000 0.000000 0.000000 -0.000000 -0.000000 0.000000 -0.000000 
-0.130562 81.009277 0.035256 -7.092737 -4.373672 2.981285 0.000001 0.000000 0.000000 -9.870188 11.595914 5.381287 12.315222 7.389229 1.496080 5.751379 0.476879 -6.005141 -0.000000 0.000000 -0.000000 -0.000000 0.000000 -0.000000 -0.000001 -0.000002 -0.000001 1.302435 -15.469260 -6.434728 22.183831 -9.088480 -3.346915 -16.502973 -5.515992 7.444444 -0.000000 -0.000000 0.000000 -0.000000 -0.000000 0.000000 -0.000000 0.000001 -0.000000 5.270577 2.004965 -2.069257 1.478230 0.635006 -0.779718 1.440799 0.631945 -0.712958 2.269832 5.220008 1.536724 3.181580 -10.468704 2.168120 -0.000000 -0.000001 0.000000 -0.000000 -0.000001 0.000000 -0.000000 -0.000001 0.000000 -0.595443 -16.331997 -20.041824 11.399579 0.974258 -33.753917 0.021403 -89.758562 0.020489 -131.360029 -7.634384 10.579088 -12.800119 -17.470126 4.121649 1.000142 0.731291 -1.438330 -0.000001 -0.000001 0.000003 -3.532540 4.254390 -63.954586 3.402096 5.315513 -65.218922 -0.000001 -0.000000 -0.000002 2.434378 7.296049 -69.364075 3.297865 5.266375 -64.088662 0.000001 0.000000 -0.000002 4.717046 8.075511 -77.582288 2.056303 4.456881 -49.517656 -0.000001 0.000000 -0.000000 6.410331 8.363711 -80.414563 1.722717 4.149907 -45.074403 -0.000003 0.000000 -0.000000 -0.000001 -0.000001 -0.000000 0.751042 18.451083 11.540467 10.590268 23.808702 38.571922 -0.000526 97.773140 0.000543 -34.403028 -20.303933 22.406535 20.470543 7.475571 18.843594 4.151722 -12.160911 -33.847986 -0.000002 -0.000001 -0.000000 -0.887098 1.427983 12.684533 1.917416 -3.767473 53.934322 0.000001 0.000001 0.000000 0.770900 -5.199595 54.618827 5.563871 -4.568243 101.238594 0.000001 -0.000002 -0.000000 6.934472 -8.544279 63.908769 2.909293 -4.317420 67.934714 -0.000002 0.000000 -0.000001 8.373393 -8.171738 73.989937 2.173679 -3.940995 57.745370 0.000002 -0.000002 0.000003 0.000001 -0.000002 -0.000002 0.000000 -0.000000 -0.000000 0.000000 -0.000000 -0.000000 0.000000 -0.000000 -0.000000 0.000000 -0.000000 -0.000000 0.000000 -0.000000 0.000000 -0.000000 -0.000000 0.000000 0.000000 -0.000000 -0.000000 0.000000 -0.000000 0.000000 -0.000000 -0.000000 0.000000 -0.000000 0.000000 -0.000000 -0.000000 0.000000 -0.000000 0.000001 0.000000 0.000000 
-0.011301 80.910431 -0.003125 -7.009726 -4.528997 3.023770 0.000001 0.000001 -0.000000 -10.503725 11.548072 5.345528 13.408420 7.160707 1.498577 5.227082 0.906334 -6.014434 -0.000000 0.000000 0.000000 -0.000000 0.000000 0.000000 -0.000001 -0.000000 0.000000 0.694573 -15.330390 -6.719810 23.018422 -8.998455 -3.351821 -16.813692 -5.547714 7.563225 0.000000 0.000002 0.000000 0.000000 0.000002 0.000000 -0.000001 0.000000 -0.000001 5.269972 1.942411 -2.101795 1.478230 0.545824 -0.771255 1.440799 0.547799 -0.686543 2.278950 5.079157 1.446695 3.068804 -10.293893 2.008880 0.000000 0.000000 -0.000000 0.000000 0.000000 -0.000000 0.000000 0.000000 -0.000000 -0.595443 -16.331997 -20.041821 11.673887 1.386659 -33.751076 -0.073590 -89.979587 -0.068905 -131.507178 -7.772090 10.489916 -12.800120 -17.470125 4.121654 1.000144 0.731291 -1.438328 -0.000001 0.000000 -0.000003 -3.532541 4.254387 -63.954586 3.402094 5.315512 -65.218922 0.000001 0.000000 -0.000002 2.434377 7.296048 -69.364082 3.297865 5.266373 -64.088662 0.000001 -0.000000 -0.000000 4.717045 8.075511 -77.582288 2.056303 4.456880 -49.517649 -0.000000 0.000001 -0.000002 6.410331 8.363709 -80.414563 1.722717 4.149907 -45.074406 0.000002 0.000000 -0.000000 -0.000000 0.000000 -0.000002 0.748014 18.465152 11.541427 10.484197 24.073596 38.792961 0.000482 97.573829 -0.000466 -34.246852 -20.433745 22.645888 20.470543 7.475567 18.843595 4.151723 -12.160908 -33.847993 -0.000000 0.000001 -0.000002 -0.887097 1.427982 12.684531 1.917414 -3.767473 53.934319 0.000002 0.000000 0.000002 0.770901 -5.199598 54.618830 5.563871 -4.568242 101.238587 0.000000 0.000000 -0.000004 6.934471 -8.544283 63.908769 2.909295 -4.317420 67.934714 -0.000002 -0.000002 0.000000 8.373393 -8.171739 73.989937 2.173680 -3.940995 57.745370 0.000002 -0.000002 0.000002 -0.000003 -0.000001 -0.000003 -0.000000 0.000000 0.000000 -0.000000 0.000000 0.000000 -0.000000 0.000000 0.000000 -0.000000 0.000000 0.000000 -0.000000 0.000000 0.000000 -0.000000 0.000000 0.000000 -0.000000 0.000000 0.000000 -0.000000 0.000000 0.000000 -0.000000 0.000000 0.000000 0.000000 -0.000000 0.000000 0.000000 -0.000000 0.000000 0.000001 0.000001 -0.000000 
0.101144 80.815369 -0.043182 -6.926341 -4.681898 3.069325 -0.000000 0.000000 -0.000000 -11.081496 11.508328 5.300569 14.386013 6.913979 1.503833 4.763858 1.349467 -6.020436 0.000000 -0.000000 0.000000 0.000000 -0.000000 -0.000000 -0.000000 -0.000000 -0.000000 0.109910 -15.193143 -6.993267 23.807674 -8.909025 -3.356463 -17.104168 -5.576909 7.671857 -0.000000 -0.000002 0.000000 -0.000000 -0.000002 0.000000 0.000001 0.000001 0.000000 5.269488 1.883318 -2.136296 1.478230 0.459727 -0.763087 1.440798 0.466592 -0.661054 2.287673 4.938015 1.356870 2.959045 -10.117158 1.854505 -0.000000 -0.000000 0.000000 -0.000000 -0.000000 0.000000 -0.000000 -0.000000 0.000000 -0.595443 -16.331997 -20.041821 11.962416 1.823213 -33.756147 0.029016 -90.210366 0.028543 -131.660694 -7.915232 10.391275 -12.800119 -17.470126 4.121650 1.000143 0.731293 -1.438326 -0.000000 -0.000001 0.000002 -3.532541 4.254389 -63.954586 3.402097 5.315513 -65.218915 -0.000000 0.000001 -0.000003 2.434377 7.296047 -69.364082 3.297865 5.266373 -64.088655 -0.000001 -0.000001 0.000002 4.717045 8.075510 -77.582288 2.056303 4.456877 -49.517652 -0.000000 0.000001 -0.000002 6.410330 8.363711 -80.414563 1.722720 4.149907 -45.074399 0.000000 -0.000000 0.000003 -0.000001 0.000000 0.000002 0.744927 18.479492 11.542401 10.372846 24.349252 39.024375 0.000240 97.366874 -0.000240 -34.080834 -20.568806 22.896730 20.470543 7.475569 18.843592 4.151724 -12.160911 -33.847989 -0.000001 0.000001 0.000002 -0.887099 1.427983 12.684530 1.917415 -3.767475 53.934319 0.000000 -0.000002 0.000005 0.770898 -5.199595 54.618827 5.563870 -4.568242 101.238594 -0.000001 -0.000001 0.000003 6.934470 -8.544281 63.908769 2.909291 -4.317417 67.934714 -0.000002 0.000001 0.000001 8.373393 -8.171741 73.989937 2.173680 -3.940994 57.745370 0.000002 0.000001 -0.000001 -0.000002 -0.000001 -0.000004 0.000000 -0.000000 0.000000 0.000000 -0.000000 0.000000 0.000000 -0.000000 0.000000 0.000000 -0.000000 0.000000 0.000000 -0.000000 0.000000 0.000000 -0.000000 0.000000 0.000000 -0.000000 0.000000 0.000000 -0.000000 0.000000 0.000000 -0.000000 0.000000 -0.000000 0.000000 -0.000000 -0.000000 0.000000 -0.000000 -0.000000 0.000000 -0.000000 
